<svg xmlns="http://www.w3.org/2000/svg" width="360" height="185" viewBox="0 0 360 185">
  <g id="Group_2644" data-name="Group 2644" transform="translate(0 -24)">
    <path id="Rectangle_1952" data-name="Rectangle 1952" d="M0,0H360a0,0,0,0,1,0,0V165a20,20,0,0,1-20,20H20A20,20,0,0,1,0,165V0A0,0,0,0,1,0,0Z" transform="translate(0 24)"/>
    <g id="leaves" transform="translate(169.39 53)">
      <path id="Path_2906" data-name="Path 2906" d="M47.825,127.1V105.6A66.72,66.72,0,0,1,62.409,63.715,67.76,67.76,0,0,1,99.05,40.134c5.059-1.248,10.027-2.563,14.825-3.923A119.755,119.755,0,0,0,96.629,5.358L92.573,0A384.327,384.327,0,0,1,53.914,36.462,59.46,59.46,0,0,0,33.982,69.091a58.54,58.54,0,0,0,4.482,38.652Z" transform="translate(0)" fill="#313131"/>
      <path id="Path_2907" data-name="Path 2907" d="M238.891,144.256a244.055,244.055,0,0,1-24.352,38.771,310.245,310.245,0,0,1-34.344,37.852,332.941,332.941,0,0,1-29.431,24.655h4.117c16.551,0,31.085-2.495,43.2-7.415a67.326,67.326,0,0,0,27.2-19.568C239.885,200.734,244.7,174.379,238.891,144.256Z" transform="translate(-85.677 -104.534)" fill="#313131"/>
      <path id="Path_2908" data-name="Path 2908" d="M184.356,163.051a234.168,234.168,0,0,0,24.428-39.322c-8.393,3.186-17.259,6.162-26.436,8.868h0l-.083.024-3.8,1.121-.006-.02c-4.994,1.419-10.167,2.792-15.436,4.092a59.459,59.459,0,0,0-32.15,20.7,58.538,58.538,0,0,0-12.793,36.748v31.736A326.859,326.859,0,0,0,151,199.85,301.8,301.8,0,0,0,184.356,163.051Z" transform="translate(-61.993 -89.66)" fill="#313131"/>
    </g>
  </g>
</svg>
