<svg xmlns="http://www.w3.org/2000/svg" xmlns:xlink="http://www.w3.org/1999/xlink" width="131" height="47.705" viewBox="0 0 131 47.705">
  <defs>
    <filter id="Path_2909" x="12.295" y="4" width="43.705" height="43.705" filterUnits="userSpaceOnUse">
      <feOffset dy="3" input="SourceAlpha"/>
      <feGaussianBlur stdDeviation="3" result="blur"/>
      <feFlood flood-opacity="0.161"/>
      <feComposite operator="in" in2="blur"/>
      <feComposite in="SourceGraphic"/>
    </filter>
  </defs>
  <g id="Group_2644" data-name="Group 2644" transform="translate(-49 -393)">
    <path id="Rectangle_1954" data-name="Rectangle 1954" d="M20,0H131a0,0,0,0,1,0,0V46a0,0,0,0,1,0,0H20A20,20,0,0,1,0,26V20A20,20,0,0,1,20,0Z" transform="translate(49 393)" fill="#f5730b"/>
    <text id="Call" transform="translate(103 425)" fill="#fff" font-size="20" font-family="SegoeUI-Bold, Segoe UI" font-weight="700"><tspan x="0" y="0">Call</tspan></text>
    <g id="phone" transform="translate(70.296 403)">
      <g id="Group_2304" data-name="Group 2304" transform="translate(0 0)">
        <g transform="matrix(1, 0, 0, 1, -21.3, -10)" filter="url(#Path_2909)">
          <path id="Path_2909-2" data-name="Path 2909" d="M21.939,3.763A12.853,12.853,0,1,0,25.7,12.849,12.853,12.853,0,0,0,21.939,3.763ZM19.464,17.9l0,0v0l-.651.647a3.427,3.427,0,0,1-3.235.925,11.388,11.388,0,0,1-3.307-1.482,15.281,15.281,0,0,1-2.609-2.1,15.4,15.4,0,0,1-1.949-2.365,11.994,11.994,0,0,1-1.465-2.965,3.427,3.427,0,0,1,.857-3.5l.763-.763a.544.544,0,0,1,.769,0l0,0L11.044,8.7a.544.544,0,0,1,0,.769l0,0L9.63,10.887a1.152,1.152,0,0,0-.12,1.5A16.534,16.534,0,0,0,11.2,14.362a16.433,16.433,0,0,0,2.228,1.872,1.161,1.161,0,0,0,1.482-.129l1.367-1.388a.544.544,0,0,1,.769,0l0,0,2.412,2.416A.544.544,0,0,1,19.464,17.9Z" transform="translate(21.3 10)" fill="#fff"/>
        </g>
      </g>
    </g>
  </g>
</svg>
