<svg xmlns="http://www.w3.org/2000/svg" width="27.211" height="27.21" viewBox="0 0 27.211 27.21">
  <g id="credit-card_2_" data-name="credit-card (2)" transform="translate(0 -0.004)">
    <path id="Path_3129" data-name="Path 3129" d="M53.053,13.81,50.685,1.386A1.7,1.7,0,0,0,48.7.034L28.707,3.844a1.7,1.7,0,0,0-1.352,1.989l2.368,12.424a1.7,1.7,0,0,0,1.989,1.353L51.7,15.8a1.7,1.7,0,0,0,1.352-1.99" transform="translate(-25.873 0)" fill="#f47d1e"/>
    <rect id="Rectangle_2118" data-name="Rectangle 2118" width="3.274" height="23.75" transform="translate(25.081 2.796) rotate(79.205)" fill="#fff7f0"/>
    <path id="Path_3130" data-name="Path 3130" d="M22.439,205.065H1.7a1.7,1.7,0,0,0-1.7,1.7v12.911a1.7,1.7,0,0,0,1.7,1.7H22.439a1.7,1.7,0,0,0,1.7-1.7V206.766a1.7,1.7,0,0,0-1.7-1.7" transform="translate(0 -194.163)" fill="#40596b"/>
    <path id="Path_3131" data-name="Path 3131" d="M46.258,315.912H40.827a.284.284,0,0,1-.283-.283v-3.644a.284.284,0,0,1,.283-.283h5.431a.284.284,0,0,1,.283.283v3.644a.284.284,0,0,1-.283.283" transform="translate(-38.389 -295.132)" fill="#ffd15c"/>
    <g id="Group_2744" data-name="Group 2744" transform="translate(2.154 16.568)">
      <rect id="Rectangle_2119" data-name="Rectangle 2119" width="5.998" height="0.306" transform="translate(0 1.202)" fill="#f8b64c"/>
      <rect id="Rectangle_2120" data-name="Rectangle 2120" width="5.998" height="0.306" transform="translate(0 2.706)" fill="#f8b64c"/>
      <rect id="Rectangle_2121" data-name="Rectangle 2121" width="0.299" height="1.396" transform="translate(3.899)" fill="#f8b64c"/>
      <rect id="Rectangle_2122" data-name="Rectangle 2122" width="0.299" height="1.3" transform="translate(3.899 2.914)" fill="#f8b64c"/>
      <rect id="Rectangle_2123" data-name="Rectangle 2123" width="0.299" height="1.456" transform="translate(2.999 1.354)" fill="#f8b64c"/>
      <rect id="Rectangle_2124" data-name="Rectangle 2124" width="0.299" height="1.456" transform="translate(4.777 1.354)" fill="#f8b64c"/>
      <rect id="Rectangle_2125" data-name="Rectangle 2125" width="0.299" height="4.211" transform="translate(1.489)" fill="#f8b64c"/>
    </g>
    <g id="Group_2745" data-name="Group 2745" transform="translate(2.155 13.101)">
      <path id="Path_3132" data-name="Path 3132" d="M41.393,248.423h-.849v-1.982H41.3a1.065,1.065,0,0,1,.34.049.488.488,0,0,1,.215.13.519.519,0,0,1,.13.345.406.406,0,0,1-.147.345.56.56,0,0,1-.069.05l-.07.033a.5.5,0,0,1,.287.165.466.466,0,0,1,.107.314.535.535,0,0,1-.138.366.713.713,0,0,1-.561.185m-.416-1.179h.2a.682.682,0,0,0,.269-.04.167.167,0,0,0,.087-.172.178.178,0,0,0-.08-.174.618.618,0,0,0-.272-.043h-.208Zm0,.8h.3a.621.621,0,0,0,.279-.048.184.184,0,0,0,.093-.183.179.179,0,0,0-.1-.183.842.842,0,0,0-.316-.043h-.255v.456h0Z" transform="translate(-40.544 -246.441)" fill="#fff"/>
      <path id="Path_3133" data-name="Path 3133" d="M73.006,248.423l-.181-.429h-.813l-.181.429H71.37l.838-1.982h.419l.838,1.982Zm-.587-1.392-.244.576h.485Z" transform="translate(-69.732 -246.441)" fill="#fff"/>
      <path id="Path_3134" data-name="Path 3134" d="M116.419,246.441h.433v1.982h-.433l-.925-1.241v1.241h-.433v-1.982h.4l.953,1.275Z" transform="translate(-111.101 -246.441)" fill="#fff"/>
      <path id="Path_3135" data-name="Path 3135" d="M157.73,246.441h.434v.814l.733-.814h.536l-.772.876.369.529q.269.387.4.577h-.506l-.569-.783-.194.222v.561h-.434v-1.982h0Z" transform="translate(-151.501 -246.441)" fill="#fff"/>
    </g>
    <g id="Group_2746" data-name="Group 2746" transform="translate(2.124 15.574)">
      <path id="Path_3136" data-name="Path 3136" d="M301,399.145l-8.6,2.792.136.437L301,399.627Z" transform="translate(-278.98 -393.502)" fill="#334a5e"/>
      <path id="Path_3137" data-name="Path 3137" d="M370.891,312.64l-3.4-10.914-.428.139,3.414,10.957a1.625,1.625,0,0,0,.415-.182" transform="translate(-349.678 -301.26)" fill="#334a5e"/>
      <path id="Path_3138" data-name="Path 3138" d="M284.519,301.551a6.306,6.306,0,0,1,.395-4.753,6.106,6.106,0,0,1,3.574-3.078,5.947,5.947,0,0,1,3.145-.155,6.029,6.029,0,0,1,1.2.421v-.509a6.381,6.381,0,0,0-4.486-.193,6.549,6.549,0,0,0-3.836,3.3,6.772,6.772,0,0,0-.424,5.1,6.67,6.67,0,0,0,1.837,2.917h.7a6.179,6.179,0,0,1-2.107-3.056" transform="translate(-270.822 -292.966)" fill="#334a5e"/>
      <path id="Path_3139" data-name="Path 3139" d="M356.938,464.329a12.3,12.3,0,0,0-1.621.4,10.679,10.679,0,0,0-3.84,2.129h.7a10.743,10.743,0,0,1,3.276-1.693,12.122,12.122,0,0,1,1.485-.376v-.464Z" transform="translate(-334.923 -455.222)" fill="#334a5e"/>
      <path id="Path_3140" data-name="Path 3140" d="M305.8,322.143a10.382,10.382,0,0,1-3.51,1.9,9.425,9.425,0,0,1-4.726.406l-.1.447a9.875,9.875,0,0,0,4.957-.416,11.118,11.118,0,0,0,3.374-1.747Z" transform="translate(-283.788 -320.592)" fill="#334a5e"/>
      <path id="Path_3141" data-name="Path 3141" d="M338.425,308.575a10.212,10.212,0,0,1-2.2-3.976,10.352,10.352,0,0,1-.458-4.538c.2-1.261.709-2.085,1.436-2.322a1.548,1.548,0,0,1,.817-.028,3.51,3.51,0,0,1,1.669,1.075,9.527,9.527,0,0,1,1.862,3.045v-1.106a9.157,9.157,0,0,0-1.542-2.26c-1-1.042-2.045-1.453-2.943-1.163s-1.518,1.245-1.744,2.685a10.81,10.81,0,0,0,.473,4.751,11,11,0,0,0,2.063,3.887h.613c-.016-.016-.036-.031-.053-.05" transform="translate(-319.542 -296.985)" fill="#334a5e"/>
      <rect id="Rectangle_2126" data-name="Rectangle 2126" width="1.946" height="0.859" transform="translate(8.409 8.556)" fill="#334a5e"/>
      <rect id="Rectangle_2127" data-name="Rectangle 2127" width="1.946" height="0.859" transform="translate(4.204 8.556)" fill="#334a5e"/>
      <rect id="Rectangle_2128" data-name="Rectangle 2128" width="1.946" height="0.859" transform="translate(0 8.556)" fill="#334a5e"/>
    </g>
  </g>
</svg>
