<svg xmlns="http://www.w3.org/2000/svg" width="84" height="84" viewBox="0 0 84 84">
  <g id="Group_2232" data-name="Group 2232" transform="translate(-129 -37)">
    <circle id="Ellipse_120" data-name="Ellipse 120" cx="42" cy="42" r="42" transform="translate(129 37)" fill="#ffe0c7"/>
    <g id="gmail" transform="translate(147.994 -3)">
      <rect id="Rectangle_1924" data-name="Rectangle 1924" width="35" height="35" transform="translate(6.006 64)" fill="#f68944"/>
      <path id="Path_2841" data-name="Path 2841" d="M256,161.945l17.252,13.623v-26.9Z" transform="translate(-232.997 -77.064)" fill="#f5730b"/>
      <path id="Path_2842" data-name="Path 2842" d="M41.693,64H40.255L23,77.623,5.751,64H4.313A4.315,4.315,0,0,0,0,68.313V94.191A4.315,4.315,0,0,0,4.313,98.5H5.751v-26.9L23,84.878,40.255,71.605V98.5h1.438a4.315,4.315,0,0,0,4.313-4.313V68.313A4.315,4.315,0,0,0,41.693,64Z"/>
    </g>
  </g>
</svg>
