<svg xmlns="http://www.w3.org/2000/svg" width="33.298" height="19.979" viewBox="0 0 33.298 19.979">
  <g id="mastercard_1_" data-name="mastercard (1)" transform="translate(0 -100.8)">
    <path id="Path_3088" data-name="Path 3088" d="M221.579,110.789a9.989,9.989,0,1,1-19.979,0h0a9.989,9.989,0,1,1,19.979,0Z" transform="translate(-188.281 0)" fill="#ffb600"/>
    <path id="Path_3089" data-name="Path 3089" d="M211.589,100.8a10.015,10.015,0,0,1,9.989,9.989h0a9.989,9.989,0,1,1-19.979,0" transform="translate(-188.281 0)" fill="#f7981d"/>
    <path id="Path_3090" data-name="Path 3090" d="M352.8,100.8a10.015,10.015,0,0,1,9.989,9.989h0a9.981,9.981,0,0,1-9.989,9.989" transform="translate(-329.492 0)" fill="#ff8500"/>
    <path id="Path_3091" data-name="Path 3091" d="M9.884,100.8a9.99,9.99,0,0,0,.106,19.979,10.106,10.106,0,0,0,6.712-2.59h0a9.5,9.5,0,0,0,1-1.057H15.645a12.19,12.19,0,0,1-.74-1h3.541a6.77,6.77,0,0,0,.581-1.057h-4.7a6.3,6.3,0,0,1-.423-1.057h5.5a10.5,10.5,0,0,0,.529-3.171,13.643,13.643,0,0,0-.211-2.114H13.583a7.726,7.726,0,0,1,.264-1.057h5.5a6.3,6.3,0,0,0-.423-1.057H14.27a10.48,10.48,0,0,1,.581-1.057h3.541A5.026,5.026,0,0,0,17.6,104.5H15.645a9.008,9.008,0,0,1,1-1,9.753,9.753,0,0,0-6.712-2.59C9.936,100.8,9.936,100.8,9.884,100.8Z" transform="translate(0 0)" fill="#ff5050"/>
    <path id="Path_3092" data-name="Path 3092" d="M0,112.284a9.981,9.981,0,0,0,9.989,9.989,10.106,10.106,0,0,0,6.712-2.59h0a9.5,9.5,0,0,0,1-1.057H15.645a12.191,12.191,0,0,1-.74-1h3.541a6.771,6.771,0,0,0,.581-1.057h-4.7a6.3,6.3,0,0,1-.423-1.057h5.5a10.5,10.5,0,0,0,.529-3.171,13.643,13.643,0,0,0-.211-2.114H13.583a7.727,7.727,0,0,1,.264-1.057h5.5a6.3,6.3,0,0,0-.423-1.057H14.27a10.482,10.482,0,0,1,.581-1.057h3.541a5.026,5.026,0,0,0-.793-1.057H15.645a9.009,9.009,0,0,1,1-1,9.753,9.753,0,0,0-6.712-2.59H9.884" transform="translate(0 -1.494)" fill="#e52836"/>
    <g id="Group_2741" data-name="Group 2741" transform="translate(0.951 108.199)">
      <path id="Path_3094" data-name="Path 3094" d="M183.133,224.651l.159-.9a2.287,2.287,0,0,1-.264.053c-.37,0-.423-.211-.37-.317l.317-1.85h.581l.159-1h-.529l.106-.634h-1.057s-.634,3.488-.634,3.911a.793.793,0,0,0,.846.9A1.623,1.623,0,0,0,183.133,224.651Z" transform="translate(-170.554 -219.524)" fill="#fff"/>
      <path id="Path_3095" data-name="Path 3095" d="M210.4,231.084a1.681,1.681,0,0,0,1.85,1.85,2.744,2.744,0,0,0,1.11-.159l.211-1a3.168,3.168,0,0,1-1.11.264c-1.163,0-.951-.846-.951-.846h2.167a6.853,6.853,0,0,0,.159-.951,1.432,1.432,0,0,0-1.533-1.533C211.193,228.6,210.4,229.763,210.4,231.084Zm1.85-1.533c.581,0,.476.687.476.74h-1.163C211.563,230.238,211.668,229.551,212.25,229.551Z" transform="translate(-197.451 -227.648)" fill="#fff"/>
      <path id="Path_3096" data-name="Path 3096" d="M298.907,217.927l.211-1.163a2.6,2.6,0,0,1-.9.264c-.74,0-1.057-.581-1.057-1.216,0-1.268.634-1.956,1.374-1.956a1.765,1.765,0,0,1,.951.317l.159-1.11a3.716,3.716,0,0,0-1.216-.264c-1.216,0-2.431,1.057-2.431,3.066,0,1.321.634,2.22,1.9,2.22A4.744,4.744,0,0,0,298.907,217.927Z" transform="translate(-277.396 -212.8)" fill="#fff"/>
      <path id="Path_3097" data-name="Path 3097" d="M88.408,227.2a3.744,3.744,0,0,0-1.268.211l-.159.9a3.124,3.124,0,0,1,1.163-.211c.37,0,.687.053.687.37,0,.211-.053.264-.053.264H88.3c-.9,0-1.9.37-1.9,1.586,0,.951.634,1.163,1,1.163a1.588,1.588,0,0,0,1.11-.476l-.053.423h.951l.423-2.907A1.253,1.253,0,0,0,88.408,227.2Zm.211,2.378c0,.159-.106,1-.74,1a.413.413,0,0,1-.423-.423c0-.264.159-.634.951-.634A.834.834,0,0,0,88.62,229.578Z" transform="translate(-81.643 -226.249)" fill="#fff"/>
      <path id="Path_3098" data-name="Path 3098" d="M136.416,230.734A1.355,1.355,0,0,0,138,229.36c0-1.321-1.268-1.057-1.268-1.586,0-.264.211-.37.581-.37.159,0,.74.053.74.053l.159-.951a4.015,4.015,0,0,0-1-.106c-.793,0-1.586.317-1.586,1.374,0,1.216,1.321,1.11,1.321,1.586,0,.317-.37.37-.634.37a3.456,3.456,0,0,1-.951-.159l-.159.951C135.253,230.628,135.517,230.734,136.416,230.734Z" transform="translate(-127.219 -225.501)" fill="#fff"/>
      <path id="Path_3099" data-name="Path 3099" d="M430.213,214.4,430,215.827a1.466,1.466,0,0,0-1-.529c-.951,0-1.8,1.163-1.8,2.537,0,.846.423,1.744,1.321,1.744a1.411,1.411,0,0,0,1-.423l-.053.37h1.057l.793-5.074Zm-.476,2.8c0,.581-.264,1.321-.846,1.321-.37,0-.581-.317-.581-.846,0-.846.37-1.374.846-1.374C429.525,216.3,429.737,216.567,429.737,217.2Z" transform="translate(-399.927 -214.294)" fill="#fff"/>
      <path id="Path_3100" data-name="Path 3100" d="M15.4,219.474l.634-3.805.106,3.805h.74l1.374-3.805-.581,3.805h1.11l.846-5.074H17.888l-1.057,3.118-.053-3.118H15.246l-.846,5.074Z" transform="translate(-14.4 -214.294)" fill="#fff"/>
      <path id="Path_3101" data-name="Path 3101" d="M261.163,232.923c.317-1.744.37-3.171,1.11-2.907a4.147,4.147,0,0,1,.37-1.216h-.211c-.476,0-.846.634-.846.634l.106-.581h-1L260,232.975h1.163Z" transform="translate(-243.774 -227.743)" fill="#fff"/>
      <path id="Path_3102" data-name="Path 3102" d="M348.408,227.2a3.744,3.744,0,0,0-1.268.211l-.159.9a3.124,3.124,0,0,1,1.163-.211c.37,0,.687.053.687.37,0,.211-.053.264-.053.264H348.3c-.9,0-1.9.37-1.9,1.586,0,.951.634,1.163,1,1.163a1.588,1.588,0,0,0,1.11-.476l-.053.423h.951l.423-2.907A1.234,1.234,0,0,0,348.408,227.2Zm.264,2.378c0,.159-.106,1-.74,1a.413.413,0,0,1-.423-.423c0-.264.159-.634.951-.634C348.62,229.578,348.62,229.578,348.673,229.578Z" transform="translate(-324.466 -226.249)" fill="#fff"/>
      <path id="Path_3103" data-name="Path 3103" d="M395.563,232.923c.317-1.744.37-3.171,1.11-2.907a4.148,4.148,0,0,1,.37-1.216h-.211c-.476,0-.846.634-.846.634l.106-.581h-1l-.687,4.123h1.163Z" transform="translate(-369.295 -227.743)" fill="#fff"/>
    </g>
    <g id="Group_2742" data-name="Group 2742" transform="translate(0.951 108.199)">
      <path id="Path_3104" data-name="Path 3104" d="M180,223.911a.793.793,0,0,0,.846.9,2.013,2.013,0,0,0,.793-.159l.159-.9a2.288,2.288,0,0,1-.264.053c-.37,0-.423-.211-.37-.317l.317-1.85h.581l.159-1h-.529L181.8,220" transform="translate(-169.059 -219.524)" fill="#dce5e5"/>
      <path id="Path_3105" data-name="Path 3105" d="M218.4,231.084c0,1.48.476,1.85,1.321,1.85a2.744,2.744,0,0,0,1.11-.159l.211-1a3.168,3.168,0,0,1-1.11.264c-1.163,0-.951-.846-.951-.846h2.167a6.853,6.853,0,0,0,.159-.951,1.432,1.432,0,0,0-1.533-1.533C218.664,228.6,218.4,229.763,218.4,231.084Zm1.321-1.533c.581,0,.687.687.687.74h-1.374C219.034,230.238,219.14,229.551,219.721,229.551Z" transform="translate(-204.922 -227.648)" fill="#dce5e5"/>
      <path id="Path_3106" data-name="Path 3106" d="M306.378,217.927l.211-1.163a2.6,2.6,0,0,1-.9.264c-.74,0-1.057-.581-1.057-1.216,0-1.268.634-1.956,1.374-1.956a1.765,1.765,0,0,1,.951.317l.159-1.11a3.716,3.716,0,0,0-1.216-.264c-1.216,0-1.9,1.057-1.9,3.066,0,1.321.106,2.22,1.374,2.22A4.743,4.743,0,0,0,306.378,217.927Z" transform="translate(-284.867 -212.8)" fill="#dce5e5"/>
      <path id="Path_3107" data-name="Path 3107" d="M86.981,229.857a3.125,3.125,0,0,1,1.163-.211c.37,0,.687.053.687.37,0,.211-.053.264-.053.264H88.3c-.9,0-1.9.37-1.9,1.586,0,.951.634,1.163,1,1.163a1.588,1.588,0,0,0,1.11-.476l-.053.423h.951l.423-2.907c0-1.216-1.057-1.268-1.48-1.268m.793,2.273a1.73,1.73,0,0,1-1.268,1,.413.413,0,0,1-.423-.423c0-.264.159-.634.951-.634A4.319,4.319,0,0,0,89.148,231.073Z" transform="translate(-81.643 -227.743)" fill="#dce5e5"/>
      <path id="Path_3108" data-name="Path 3108" d="M136,230.628a4.472,4.472,0,0,0,1.216.106,1.355,1.355,0,0,0,1.586-1.374c0-1.321-1.268-1.057-1.268-1.586,0-.264.211-.37.581-.37.159,0,.74.053.74.053l.159-.951a4.015,4.015,0,0,0-1-.106c-.793,0-1.057.317-1.057,1.374,0,1.216.793,1.11.793,1.586,0,.317-.37.37-.634.37" transform="translate(-127.966 -225.501)" fill="#dce5e5"/>
      <path id="Path_3109" data-name="Path 3109" d="M437.418,216.574a1.466,1.466,0,0,0-1-.529c-.951,0-1.268,1.163-1.268,2.537,0,.846-.106,1.744.793,1.744a1.411,1.411,0,0,0,1-.423l-.053.37h1.057l.793-5.074m-1.374,2.748c0,.581-.476,1.321-1.057,1.321-.37,0-.581-.317-.581-.846,0-.846.37-1.374.846-1.374A.808.808,0,0,1,437.366,217.948Z" transform="translate(-407.345 -215.041)" fill="#dce5e5"/>
      <path id="Path_3110" data-name="Path 3110" d="M15.4,219.474l.634-3.805.106,3.805h.74l1.374-3.805-.581,3.805h1.11l.846-5.074H18.311l-1.48,3.118-.053-3.118H16.2l-1.8,5.074Z" transform="translate(-14.4 -214.294)" fill="#dce5e5"/>
      <path id="Path_3111" data-name="Path 3111" d="M260.8,232.923h1.11c.317-1.744.37-3.171,1.11-2.907a4.149,4.149,0,0,1,.37-1.216h-.211c-.476,0-.846.634-.846.634l.106-.581" transform="translate(-244.521 -227.743)" fill="#dce5e5"/>
      <path id="Path_3112" data-name="Path 3112" d="M346.981,229.857a3.125,3.125,0,0,1,1.163-.211c.37,0,.687.053.687.37,0,.211-.053.264-.053.264H348.3c-.9,0-1.9.37-1.9,1.586,0,.951.634,1.163,1,1.163a1.588,1.588,0,0,0,1.11-.476l-.053.423h.951l.423-2.907c0-1.216-1.057-1.268-1.48-1.268m.793,2.273a1.73,1.73,0,0,1-1.269,1,.413.413,0,0,1-.423-.423c0-.264.159-.634.951-.634A4.651,4.651,0,0,0,349.148,231.073Z" transform="translate(-324.466 -227.743)" fill="#dce5e5"/>
      <path id="Path_3113" data-name="Path 3113" d="M395.2,232.923h1.11c.317-1.744.37-3.171,1.11-2.907a4.147,4.147,0,0,1,.37-1.216h-.211c-.476,0-.846.634-.846.634l.106-.581" transform="translate(-370.042 -227.743)" fill="#dce5e5"/>
    </g>
  </g>
</svg>
