<svg id="password" xmlns="http://www.w3.org/2000/svg" width="23.584" height="23.584" viewBox="0 0 23.584 23.584">
  <path id="Path_2935" data-name="Path 2935" d="M11.844,8.6a.982.982,0,0,1-.983-.983v-2.7a2.948,2.948,0,1,0-5.9,0v2.7A.983.983,0,0,1,3,7.616v-2.7a4.913,4.913,0,0,1,9.827,0v2.7A.982.982,0,0,1,11.844,8.6Z" transform="translate(-0.052)" fill="#433838"/>
  <path id="Path_2936" data-name="Path 2936" d="M13.512,19.775H2.211A2.214,2.214,0,0,1,0,17.564V9.211A2.214,2.214,0,0,1,2.211,7h11.3a2.214,2.214,0,0,1,2.211,2.211v8.353A2.214,2.214,0,0,1,13.512,19.775Z" transform="translate(0 -0.121)"/>
  <path id="Path_2937" data-name="Path 2937" d="M7.913,0A4.919,4.919,0,0,0,3,4.913V6.879H4.965V4.913A2.952,2.952,0,0,1,7.913,1.965Z" transform="translate(-0.052)" fill="#2b2a2a"/>
  <path id="Path_2938" data-name="Path 2938" d="M7.861,7H2.211A2.214,2.214,0,0,0,0,9.211v8.353a2.214,2.214,0,0,0,2.211,2.211h5.65Z" transform="translate(0 -0.121)" fill="#262626"/>
  <path id="Path_2939" data-name="Path 2939" d="M19.965,18.931a1.965,1.965,0,1,1,1.965-1.965A1.967,1.967,0,0,1,19.965,18.931Z" transform="translate(-0.312 -0.26)" fill="#f5730b"/>
  <path id="Path_2940" data-name="Path 2940" d="M23.124,23.931H16.737A.737.737,0,0,1,16,23.194V22.7A2.7,2.7,0,0,1,18.7,20h2.457a2.7,2.7,0,0,1,2.7,2.7v.491A.737.737,0,0,1,23.124,23.931Z" transform="translate(-0.277 -0.346)" fill="#f5730b"/>
  <g id="Group_2349" data-name="Group 2349" transform="translate(15.723 14.74)">
    <path id="Path_2941" data-name="Path 2941" d="M19.965,15a1.965,1.965,0,0,0,0,3.931Z" transform="translate(-16.035 -15)" fill="#f68944"/>
    <path id="Path_2942" data-name="Path 2942" d="M19.931,20H18.7A2.7,2.7,0,0,0,16,22.7v.491a.737.737,0,0,0,.737.737h3.194Z" transform="translate(-16 -15.087)" fill="#f68944"/>
  </g>
</svg>
