<svg xmlns="http://www.w3.org/2000/svg" width="42.748" height="44.47" viewBox="0 0 42.748 44.47">
  <g id="Group_2416" data-name="Group 2416" transform="translate(-264.108 -396)">
    <g id="delivery-man" transform="translate(265.671 396)">
      <g id="Group_2386" data-name="Group 2386" transform="translate(0.229 25.705)">
        <path id="Path_2959" data-name="Path 2959" d="M233.172,293.7h-5.795v2.666a1.165,1.165,0,0,0,1.161,1.162h18.867c0-1.676,0-2.529-1.282-2.529l-2.553,0c-1.607,0-2.661-.414-3.249-1.3h-7.149Z" transform="translate(-227.377 -293.7)" fill="#837e7e" fill-rule="evenodd"/>
      </g>
      <g id="Group_2387" data-name="Group 2387" transform="translate(0.056 29.533)">
        <path id="Path_2960" data-name="Path 2960" d="M160.548,335.289H143.957c-.973,1.695-1.755,3.731-1.08,7.626,1.129-3.841,12.595-2.308,13.772,2.125H169.3c.478-1.084.93-2.155,1.325-3.236h-3.567C159.844,339.082,162.164,340.295,160.548,335.289Z" transform="translate(-142.623 -335.289)" fill="#f47d1e" fill-rule="evenodd"/>
      </g>
      <g id="Group_2388" data-name="Group 2388" transform="translate(10.332 9.292)">
        <path id="Path_2961" data-name="Path 2961" d="M245,125.209a27.086,27.086,0,0,1-.96,3.677l-3.647,1.429-4.067-1.429c.142-7.7,3.018-11.386,5.464-12.581a5.937,5.937,0,0,1,1.785-.924s1.188,1.9,1.25,1.9a10.208,10.208,0,0,1,.6,4.035Z" transform="translate(-236.326 -115.381)" fill="#dbdbdb" fill-rule="evenodd"/>
      </g>
      <g id="Group_2389" data-name="Group 2389" transform="translate(10.319 22.797)">
        <path id="Path_2962" data-name="Path 2962" d="M208.37,262.108h7.714c1.777.194,3.962,1.547,3.962,5.738v4.393l-1.751,1.043-2.276-1.043v-3.395c0-1.676,0-2.529-1.282-2.529l-2.553,0c-1.607,0-2.661-.414-3.249-1.3A4.761,4.761,0,0,1,208.37,262.108Z" transform="translate(-208.357 -262.108)" fill="#2e7184" fill-rule="evenodd"/>
      </g>
      <g id="Group_2390" data-name="Group 2390" transform="translate(10.332 10.216)">
        <path id="Path_2963" data-name="Path 2963" d="M262.7,138c.143-7.7,3.018-11.386,5.464-12.581a4.939,4.939,0,0,0,1.21.621c-2.166,1.638-4.338,5.3-4.462,11.959Z" transform="translate(-262.702 -125.421)" fill="#837e7e" fill-rule="evenodd"/>
      </g>
      <g id="Group_2391" data-name="Group 2391" transform="translate(10.319 22.797)">
        <path id="Path_2964" data-name="Path 2964" d="M286.632,262.108h2.212a4.761,4.761,0,0,0,.564,2.908,3.322,3.322,0,0,0,1.7,1.3h-.659c-1.607,0-2.661-.414-3.25-1.3A4.762,4.762,0,0,1,286.632,262.108Z" transform="translate(-286.619 -262.108)" fill="#045c76" fill-rule="evenodd"/>
      </g>
      <g id="Group_2392" data-name="Group 2392" transform="translate(0 32.136)">
        <path id="Path_2965" data-name="Path 2965" d="M308.555,370.726a7.033,7.033,0,0,0-13.772-2.125,7.211,7.211,0,0,0-.309,1.9c-.008.258.169.226.411.226Q301.719,370.726,308.555,370.726Z" transform="translate(-294.474 -363.579)" fill="#dbdbdb" fill-rule="evenodd"/>
      </g>
      <g id="Group_2393" data-name="Group 2393" transform="translate(1.591 39.284)">
        <path id="Path_2966" data-name="Path 2966" d="M324.437,441.231H313.718a5.362,5.362,0,0,0,10.719,0Z" transform="translate(-313.718 -441.231)" fill="#837e7e" fill-rule="evenodd"/>
      </g>
      <g id="Group_2394" data-name="Group 2394" transform="translate(30.308 38.14)">
        <path id="Path_2967" data-name="Path 2967" d="M25.889,428.81l-9.222,2.122a4.731,4.731,0,1,0,9.222-2.122Z" transform="translate(-16.667 -428.81)" fill="#837e7e" fill-rule="evenodd"/>
      </g>
      <g id="Group_2395" data-name="Group 2395" transform="translate(28.488 32.764)">
        <path id="Path_2968" data-name="Path 2968" d="M11.732,373.185a6.437,6.437,0,0,0-5.932-2.76C1.629,371.307.271,373.8,0,376.91a6.427,6.427,0,0,0,.142,1.272c.027.118.1.07.234.04l1.443-.331,9.222-2.122.691-.159.965-.223a6.385,6.385,0,0,0-.965-2.2Z" transform="translate(0 -370.393)" fill="#dbdbdb" fill-rule="evenodd"/>
      </g>
      <g id="Group_2396" data-name="Group 2396" transform="translate(25.806 19.144)">
        <path id="Path_2969" data-name="Path 2969" d="M83.336,236.061l-3.725-12.89-1.677-.751-1.876.751c2.465,6.832,1.777,11.6.113,16.153-.4,1.081-.849,2.152-1.325,3.236h2.68Z" transform="translate(-74.845 -222.42)" fill="#f47d1e" fill-rule="evenodd"/>
      </g>
      <g id="Group_2397" data-name="Group 2397" transform="translate(16.678 4.511)">
        <path id="Path_2970" data-name="Path 2970" d="M203.167,64.365l-4.37-.931c-.443.04-1.712,1.106-1.712,1.773l.93,4.729a4.268,4.268,0,0,0,1.223.18,4.226,4.226,0,0,0,3.93-5.751Z" transform="translate(-197.085 -63.434)" fill="#feb40b" fill-rule="evenodd"/>
      </g>
      <g id="Group_2398" data-name="Group 2398" transform="translate(13.528 0)">
        <path id="Path_2971" data-name="Path 2971" d="M195.493,19.865a5.323,5.323,0,1,0-10.644,0,5.7,5.7,0,0,0,2.269,4.775,5.077,5.077,0,0,0,1.812.8V20.707c0-.667.339-.8.782-.842h5.781Z" transform="translate(-184.849 -14.423)" fill="#2e7184" fill-rule="evenodd"/>
      </g>
      <g id="Group_2399" data-name="Group 2399" transform="translate(13.528 0)">
        <path id="Path_2972" data-name="Path 2972" d="M220.522,15.227a5.194,5.194,0,0,0-2.785-.8,5.381,5.381,0,0,0-5.322,5.442,5.7,5.7,0,0,0,2.269,4.775,4.938,4.938,0,0,0,1.234.629,6.189,6.189,0,0,1-1.666-4.4,5.628,5.628,0,0,1,5.564-5.689A5.111,5.111,0,0,1,220.522,15.227Z" transform="translate(-212.416 -14.423)" fill="#045c76" fill-rule="evenodd"/>
      </g>
      <g id="Group_2400" data-name="Group 2400" transform="translate(17.981 32.927)">
        <path id="Path_2973" data-name="Path 2973" d="M185.334,372.171h-4.026v2.537c0,.543.3.584.731.584h5.779C187.934,372.747,186.393,372.171,185.334,372.171Z" transform="translate(-181.308 -372.171)" fill="#461720" fill-rule="evenodd"/>
      </g>
      <g id="Group_2401" data-name="Group 2401" transform="translate(25.806 19.895)">
        <path id="Path_2974" data-name="Path 2974" d="M117.138,246.727c1.664-4.551,2.352-9.321-.113-16.153h1.895c2.465,6.832,1.779,11.6.113,16.153-.4,1.081-.847,2.152-1.325,3.236h-1.895C116.288,248.879,116.74,247.808,117.138,246.727Z" transform="translate(-115.813 -230.574)" fill="#b24703" fill-rule="evenodd"/>
      </g>
      <g id="Group_2402" data-name="Group 2402" transform="translate(28.488 32.764)">
        <path id="Path_2975" data-name="Path 2975" d="M55.747,376.912l5.8-6.485a6.338,6.338,0,0,1,1.766.07l-5.574,6.232a6.412,6.412,0,0,0,.11,1.1l-.282.065-1.443.331c-.129.03-.207.078-.234-.04A6.44,6.44,0,0,1,55.747,376.912Z" transform="translate(-55.747 -370.395)" fill="#a59f9f" fill-rule="evenodd"/>
      </g>
      <g id="Group_2403" data-name="Group 2403" transform="translate(0.056 29.533)">
        <path id="Path_2976" data-name="Path 2976" d="M253.436,335.289h16.592v1.461H256.395a2.02,2.02,0,0,0-2.07,1.45,6.733,6.733,0,0,0-.551,2.133,7.131,7.131,0,0,0-1.419,2.582C251.68,339.02,252.463,336.984,253.436,335.289Z" transform="translate(-252.102 -335.289)" fill="#b24703" fill-rule="evenodd"/>
      </g>
      <g id="Group_2404" data-name="Group 2404" transform="translate(0 32.136)">
        <path id="Path_2977" data-name="Path 2977" d="M355.921,366.019a6.984,6.984,0,0,1,5.311-2.44,7.124,7.124,0,0,1,1.545.169,7.1,7.1,0,0,0-5.491,6.752c-.005.178.075.218.2.226H354.6c-.242,0-.419.032-.411-.226a7.213,7.213,0,0,1,.309-1.9c.005-.019.011-.035.016-.051v0A7.133,7.133,0,0,1,355.921,366.019Z" transform="translate(-354.192 -363.579)" fill="#433838" fill-rule="evenodd"/>
      </g>
      <g id="Group_2405" data-name="Group 2405" transform="translate(30.308 38.14)">
        <path id="Path_2978" data-name="Path 2978" d="M16.944,430.868l8.94-2.058A4.705,4.705,0,0,1,26,430.072l-7.1,1.633-.28.065a4.7,4.7,0,0,0,1.822,2.765,4.728,4.728,0,0,1-3.787-3.6Z" transform="translate(-16.662 -428.81)" fill="#433838" fill-rule="evenodd"/>
      </g>
      <g id="Group_2406" data-name="Group 2406" transform="translate(1.592 39.283)">
        <path id="Path_2979" data-name="Path 2979" d="M315.424,441.23h9.012a5.56,5.56,0,0,1-.331,1.617H316.12a5.54,5.54,0,0,0,1.314,3.309,5.473,5.473,0,0,1-3.717-4.925h1.707Z" transform="translate(-313.717 -441.23)" fill="#433838" fill-rule="evenodd"/>
      </g>
      <g id="Group_2407" data-name="Group 2407" transform="translate(0.229 25.705)">
        <path id="Path_2980" data-name="Path 2980" d="M392.8,296.367V293.7h3.642v2.666a1.165,1.165,0,0,0,1.161,1.162h-3.642A1.165,1.165,0,0,1,392.8,296.367Z" transform="translate(-392.797 -293.701)" fill="#433838" fill-rule="evenodd"/>
      </g>
      <g id="Group_2408" data-name="Group 2408" transform="translate(17.608 5.442)">
        <path id="Path_2981" data-name="Path 2981" d="M202.734,74.624h-3.591c-.443.04-.782.178-.782.845v3.822a4.311,4.311,0,0,1-1.043-.175V74.387c0-.667.339-.8.782-.842h4.37A4.224,4.224,0,0,1,202.734,74.624Z" transform="translate(-197.318 -73.545)" fill="#ffddce" fill-rule="evenodd"/>
      </g>
      <g id="Group_2409" data-name="Group 2409" transform="translate(26.221 15.658)">
        <path id="Path_2982" data-name="Path 2982" d="M100.968,184.725l-5.029,1.662a4.468,4.468,0,0,0,.2,2.4h5.846v-3.7c0-.729-.379-.568-1.016-.358Z" transform="translate(-95.841 -184.548)" fill="#c75209" fill-rule="evenodd"/>
      </g>
      <g id="Group_2410" data-name="Group 2410" transform="translate(23.346 17.31)">
        <path id="Path_2983" data-name="Path 2983" d="M148.956,205.073H151.5c1.365,0,1.406-2.265-.2-2.4l-2.344-.188-.629,1.332Z" transform="translate(-148.327 -202.488)" fill="#ffece4" fill-rule="evenodd"/>
      </g>
      <g id="Group_2411" data-name="Group 2411" transform="translate(15.415 13.949)">
        <path id="Path_2984" data-name="Path 2984" d="M191,167.253l-.841-.724c-2.107-1.816-4.771,1.248-1.954,3.077l2.371,1.539,1.193.775h3.776v-2.585l-2.346-.191Z" transform="translate(-186.981 -165.974)" fill="#2e7184" fill-rule="evenodd"/>
      </g>
      <g id="Group_2412" data-name="Group 2412" transform="translate(23.975 18.62)">
        <path id="Path_2985" data-name="Path 2985" d="M148.319,218v-1.253h3.319a1.043,1.043,0,0,0,.228-.022A1.052,1.052,0,0,1,150.862,218h-2.543Z" transform="translate(-148.319 -216.721)" fill="#ffddce" fill-rule="evenodd"/>
      </g>
      <g id="Group_2413" data-name="Group 2413" transform="translate(15.415 14.259)">
        <path id="Path_2986" data-name="Path 2986" d="M188.2,172.669c-1.7-1.108-1.4-2.666-.433-3.322a2.2,2.2,0,0,0,1.21,2.071l1.847,1.2.521.342,1.193.772h3v1.254h-3.776l-1.193-.775Z" transform="translate(-186.981 -169.347)" fill="#045c76" fill-rule="evenodd"/>
      </g>
      <g id="Group_2414" data-name="Group 2414" transform="translate(26.319 16.831)">
        <path id="Path_2987" data-name="Path 2987" d="M131.194,197.953l2.024-.667a3.077,3.077,0,0,1,.57,3.064h-2.395a1.052,1.052,0,0,0,1.005-1.275A1.261,1.261,0,0,0,131.194,197.953Z" transform="translate(-131.194 -197.286)" fill="#feb40b" fill-rule="evenodd"/>
      </g>
    </g>
    <g id="Group_2415" data-name="Group 2415" transform="translate(264.108 397.543)">
      <rect id="Rectangle_1906" data-name="Rectangle 1906" width="1.168" height="1.947" transform="translate(4.867 1.947)" fill="#edb264"/>
      <rect id="Rectangle_1905" data-name="Rectangle 1905" width="0.779" height="3.504" transform="translate(1.947 0.389)" fill="#433838"/>
      <rect id="Rectangle_1907" data-name="Rectangle 1907" width="0.779" height="3.504" transform="translate(8.176 0.389)" fill="#433838"/>
      <path id="Path_2796" data-name="Path 2796" d="M199.218,471.365h-6.11l-.332.682c-.054.111.153.214.428.214h5.918c.275,0,.482-.1.428-.214Z" transform="translate(-190.752 -448.361)"/>
      <path id="Path_2790" data-name="Path 2790" d="M158.136,73.143h-5.451a2.336,2.336,0,0,0-2.336,2.336v14.8a2.336,2.336,0,0,0,2.336,2.336h5.451a2.336,2.336,0,0,0,2.336-2.336v-14.8A2.336,2.336,0,0,0,158.136,73.143Z" transform="translate(-149.96 -69.639)" fill="#f47d1e"/>
      <path id="Path_2791" data-name="Path 2791" d="M153.853,90.274v-14.8a2.336,2.336,0,0,1,2.336-2.336h-3.5a2.336,2.336,0,0,0-2.336,2.336v14.8a2.336,2.336,0,0,0,2.336,2.336h3.5A2.336,2.336,0,0,1,153.853,90.274Z" transform="translate(-149.96 -69.639)" fill="#f5730b"/>
      <path id="Path_2793" data-name="Path 2793" d="M152.685,75.479v14.8a2.336,2.336,0,0,1-2.336,2.336h3.5a2.336,2.336,0,0,0,2.336-2.336v-14.8a2.336,2.336,0,0,0-2.336-2.336h-3.5A2.336,2.336,0,0,1,152.685,75.479Z" transform="translate(-145.677 -69.639)" fill="#f5730b"/>
      <path id="Path_2789" data-name="Path 2789" d="M174.779.779h-7.787a.389.389,0,0,1,0-.779h7.787a.389.389,0,1,1,0,.779Z" transform="translate(-165.435 0)" fill="#433838"/>
      <path id="Path_2792" data-name="Path 2792" d="M229.891,33.287h-1.947a.389.389,0,1,1,0-.779h1.947a.389.389,0,0,1,0,.779Z" transform="translate(-223.467 -30.951)" fill="#433838"/>
      <path id="Path_2795" data-name="Path 2795" d="M152.734,268.969H142.611a.389.389,0,0,1-.389-.389h0a.389.389,0,0,1,.389-.389h10.123a.389.389,0,0,1,.389.389h0A.389.389,0,0,1,152.734,268.969Z" transform="translate(-142.222 -249.593)" fill="#ffbb84"/>
    </g>
  </g>
</svg>
