<svg xmlns="http://www.w3.org/2000/svg" width="165.427" height="171.354" viewBox="0 0 165.427 171.354">
  <g id="Group_2800" data-name="Group 2800" transform="translate(-111.292 -220.116)">
    <g id="Group_2799" data-name="Group 2799" transform="translate(111.029 -156.884)">
      <g id="Group_2416" data-name="Group 2416" transform="translate(0.971 377)">
        <g id="delivery-man" transform="translate(6.021)">
          <g id="Group_2386" data-name="Group 2386" transform="translate(0.881 99.047)">
            <path id="Path_2959" data-name="Path 2959" d="M249.706,293.7H227.377v10.271a4.49,4.49,0,0,0,4.474,4.478h72.7c0-6.457,0-9.743-4.94-9.743l-9.839-.01c-6.193-.01-10.253-1.6-12.521-5H249.706Z" transform="translate(-227.377 -293.7)" fill="#837e7e" fill-rule="evenodd"/>
          </g>
          <g id="Group_2387" data-name="Group 2387" transform="translate(0.217 113.797)">
            <path id="Path_2960" data-name="Path 2960" d="M211.693,335.289H147.761c-3.749,6.53-6.763,14.376-4.163,29.384,4.35-14.8,48.532-8.893,53.068,8.188h48.749c1.844-4.177,3.583-8.3,5.106-12.469H236.778C208.98,349.9,217.918,354.578,211.693,335.289Z" transform="translate(-142.623 -335.289)" fill="#fff7f0" fill-rule="evenodd"/>
          </g>
          <g id="Group_2388" data-name="Group 2388" transform="translate(39.813 35.805)">
            <path id="Path_2961" data-name="Path 2961" d="M269.747,153.25a104.37,104.37,0,0,1-3.7,14.169L252,172.925l-15.67-5.507c.549-29.654,11.631-43.875,21.055-48.477a22.878,22.878,0,0,1,6.877-3.561s4.578,7.323,4.816,7.323c1.761,4.187,2.423,9.65,2.31,15.547Z" transform="translate(-236.326 -115.381)" fill="#dbdbdb" fill-rule="evenodd"/>
          </g>
          <g id="Group_2389" data-name="Group 2389" transform="translate(39.763 87.843)">
            <path id="Path_2962" data-name="Path 2962" d="M208.407,262.108h29.724c6.846.746,15.266,5.96,15.266,22.109v16.926l-6.746,4.018-8.768-4.018V288.062c0-6.457,0-9.743-4.94-9.743l-9.839-.01c-6.193-.01-10.253-1.6-12.521-5C208.832,270.69,208.159,266.99,208.407,262.108Z" transform="translate(-208.357 -262.108)" fill="#2e7184" fill-rule="evenodd"/>
          </g>
          <g id="Group_2390" data-name="Group 2390" transform="translate(39.812 39.366)">
            <path id="Path_2963" data-name="Path 2963" d="M262.7,173.9c.549-29.654,11.631-43.875,21.055-48.477a19.031,19.031,0,0,0,4.661,2.394c-8.348,6.312-16.716,20.419-17.192,46.083Z" transform="translate(-262.702 -125.421)" fill="#433838" fill-rule="evenodd"/>
          </g>
          <g id="Group_2391" data-name="Group 2391" transform="translate(39.763 87.843)">
            <path id="Path_2964" data-name="Path 2964" d="M286.669,262.108h8.523c-.249,4.882.425,8.582,2.175,11.2a12.8,12.8,0,0,0,6.535,5h-2.537c-6.193-.01-10.253-1.6-12.521-5C287.094,270.69,286.421,266.99,286.669,262.108Z" transform="translate(-286.619 -262.108)" fill="#045c76" fill-rule="evenodd"/>
          </g>
          <g id="Group_2392" data-name="Group 2392" transform="translate(0 123.83)">
            <path id="Path_2965" data-name="Path 2965" d="M348.734,391.119a27.1,27.1,0,0,0-53.068-8.188,27.785,27.785,0,0,0-1.191,7.318c-.031,1,.652.871,1.584.871Q322.391,391.119,348.734,391.119Z" transform="translate(-294.474 -363.579)" fill="#dbdbdb" fill-rule="evenodd"/>
          </g>
          <g id="Group_2393" data-name="Group 2393" transform="translate(6.132 151.37)">
            <path id="Path_2966" data-name="Path 2966" d="M355.021,441.231h-41.3a20.663,20.663,0,0,0,41.3,0Z" transform="translate(-313.718 -441.231)" fill="#837e7e" fill-rule="evenodd"/>
          </g>
          <g id="Group_2394" data-name="Group 2394" transform="translate(116.784 146.965)">
            <path id="Path_2967" data-name="Path 2967" d="M52.2,428.81l-35.534,8.178A18.231,18.231,0,1,0,52.2,428.81Z" transform="translate(-16.667 -428.81)" fill="#837e7e" fill-rule="evenodd"/>
          </g>
          <g id="Group_2395" data-name="Group 2395" transform="translate(109.772 126.247)">
            <path id="Path_2968" data-name="Path 2968" d="M45.207,381.15A24.8,24.8,0,0,0,22.35,370.516c-16.074,3.4-21.3,13.008-22.35,24.99a24.765,24.765,0,0,0,.549,4.9c.1.456.4.27.9.155l5.562-1.275,35.534-8.178,2.662-.611,3.718-.86a24.6,24.6,0,0,0-3.718-8.489Z" transform="translate(0 -370.393)" fill="#dbdbdb" fill-rule="evenodd"/>
          </g>
          <g id="Group_2396" data-name="Group 2396" transform="translate(99.436 73.767)">
            <path id="Path_2969" data-name="Path 2969" d="M107.562,274.981,93.208,225.312l-6.463-2.892-7.229,2.892c9.5,26.327,6.846,44.7.435,62.242-1.533,4.167-3.273,8.292-5.106,12.469H85.171Z" transform="translate(-74.845 -222.42)" fill="#fff7f0" fill-rule="evenodd"/>
          </g>
          <g id="Group_2397" data-name="Group 2397" transform="translate(64.265 17.382)">
            <path id="Path_2970" data-name="Path 2970" d="M220.523,67.02l-16.84-3.586c-1.709.155-6.6,4.26-6.6,6.831l3.583,18.222a16.447,16.447,0,0,0,4.712.694,16.283,16.283,0,0,0,15.142-22.16Z" transform="translate(-197.085 -63.434)" fill="#feb40b" fill-rule="evenodd"/>
          </g>
          <g id="Group_2398" data-name="Group 2398" transform="translate(52.127 0)">
            <path id="Path_2971" data-name="Path 2971" d="M225.862,35.391a20.511,20.511,0,1,0-41.013,0c0,7.649,3.107,14.449,8.741,18.4a19.562,19.562,0,0,0,6.98,3.068V38.635c0-2.571,1.3-3.089,3.014-3.244h22.277Z" transform="translate(-184.849 -14.423)" fill="#2e7184" fill-rule="evenodd"/>
          </g>
          <g id="Group_2399" data-name="Group 2399" transform="translate(52.127 0)">
            <path id="Path_2972" data-name="Path 2972" d="M243.652,17.522a20.012,20.012,0,0,0-10.729-3.1,20.733,20.733,0,0,0-20.506,20.968c0,7.649,3.107,14.449,8.741,18.4a19.028,19.028,0,0,0,4.754,2.425C221.748,52,219.49,45.943,219.49,39.268a21.686,21.686,0,0,1,21.438-21.922A19.693,19.693,0,0,1,243.652,17.522Z" transform="translate(-212.416 -14.423)" fill="#045c76" fill-rule="evenodd"/>
          </g>
          <g id="Group_2400" data-name="Group 2400" transform="translate(69.287 126.878)">
            <path id="Path_2973" data-name="Path 2973" d="M196.823,372.171H181.308v9.775c0,2.094,1.139,2.249,2.817,2.249h22.267C206.838,374.389,200.9,372.171,196.823,372.171Z" transform="translate(-181.308 -372.171)" fill="#461720" fill-rule="evenodd"/>
          </g>
          <g id="Group_2401" data-name="Group 2401" transform="translate(99.436 76.659)">
            <path id="Path_2974" data-name="Path 2974" d="M120.919,292.816c6.411-17.537,9.062-35.914-.435-62.242h7.3c9.5,26.327,6.856,44.7.435,62.242-1.523,4.167-3.263,8.292-5.106,12.469h-7.3C117.646,301.108,119.386,296.982,120.919,292.816Z" transform="translate(-115.813 -230.574)" fill="#b24703" fill-rule="evenodd"/>
          </g>
          <g id="Group_2402" data-name="Group 2402" transform="translate(109.772 126.248)">
            <path id="Path_2975" data-name="Path 2975" d="M55.747,395.507l22.35-24.99a24.42,24.42,0,0,1,6.8.27L63.421,394.8a24.708,24.708,0,0,0,.425,4.239l-1.087.249L57.2,400.565c-.5.114-.8.3-.9-.155A24.814,24.814,0,0,1,55.747,395.507Z" transform="translate(-55.747 -370.395)" fill="#433838" fill-rule="evenodd"/>
          </g>
          <g id="Group_2403" data-name="Group 2403" transform="translate(0.217 113.797)">
            <path id="Path_2976" data-name="Path 2976" d="M257.241,335.289h63.932v5.628H268.643c-4.277,0-6.307,1.845-7.975,5.587-1.44,3.245-1.471,4.3-2.123,8.219a27.478,27.478,0,0,0-5.469,9.95C250.478,349.665,253.492,341.819,257.241,335.289Z" transform="translate(-252.102 -335.289)" fill="#b24703" fill-rule="evenodd"/>
          </g>
          <g id="Group_2404" data-name="Group 2404" transform="translate(0 123.83)">
            <path id="Path_2977" data-name="Path 2977" d="M360.853,372.98a26.913,26.913,0,0,1,20.465-9.4,27.455,27.455,0,0,1,5.955.653,27.357,27.357,0,0,0-21.159,26.016c-.021.684.29.84.787.871H355.778c-.932,0-1.616.125-1.585-.871a27.793,27.793,0,0,1,1.191-7.317c.021-.073.042-.135.062-.2v-.01A27.484,27.484,0,0,1,360.853,372.98Z" transform="translate(-354.192 -363.579)" fill="#433838" fill-rule="evenodd"/>
          </g>
          <g id="Group_2405" data-name="Group 2405" transform="translate(116.784 146.965)">
            <path id="Path_2978" data-name="Path 2978" d="M17.749,436.739,52.2,428.81a18.13,18.13,0,0,1,.456,4.861L25.31,439.963l-1.077.249a18.124,18.124,0,0,0,7.022,10.655,18.219,18.219,0,0,1-14.593-13.879Z" transform="translate(-16.662 -428.81)" fill="#433838" fill-rule="evenodd"/>
          </g>
          <g id="Group_2406" data-name="Group 2406" transform="translate(6.133 151.37)">
            <path id="Path_2979" data-name="Path 2979" d="M320.293,441.23h34.726a21.424,21.424,0,0,1-1.274,6.229h-30.77a21.348,21.348,0,0,0,5.064,12.749,21.089,21.089,0,0,1-14.323-18.978h6.576Z" transform="translate(-313.717 -441.23)" fill="#433838" fill-rule="evenodd"/>
          </g>
          <g id="Group_2407" data-name="Group 2407" transform="translate(0.882 99.048)">
            <path id="Path_2980" data-name="Path 2980" d="M392.8,303.972V293.7h14.034v10.271a4.49,4.49,0,0,0,4.474,4.477H397.271A4.49,4.49,0,0,1,392.8,303.972Z" transform="translate(-392.797 -293.701)" fill="#433838" fill-rule="evenodd"/>
          </g>
          <g id="Group_2408" data-name="Group 2408" transform="translate(67.848 20.968)">
            <path id="Path_2981" data-name="Path 2981" d="M218.187,77.7H204.35c-1.709.155-3.014.684-3.014,3.255V95.685a16.61,16.61,0,0,1-4.018-.674V76.789c0-2.571,1.3-3.089,3.014-3.244h16.84A16.276,16.276,0,0,1,218.187,77.7Z" transform="translate(-197.318 -73.545)" fill="#ffddce" fill-rule="evenodd"/>
          </g>
          <g id="Group_2409" data-name="Group 2409" transform="translate(101.037 60.336)">
            <path id="Path_2982" data-name="Path 2982" d="M115.6,185.231l-19.377,6.405c-.953.85.124,9.515.766,9.235h22.526V186.609c0-2.809-1.46-2.187-3.915-1.379Z" transform="translate(-95.841 -184.548)" fill="#c75209" fill-rule="evenodd"/>
          </g>
          <g id="Group_2410" data-name="Group 2410" transform="translate(89.96 66.698)">
            <path id="Path_2983" data-name="Path 2983" d="M150.75,212.449h9.8c5.261,0,5.417-8.727-.766-9.235l-9.031-.726-2.423,5.131Z" transform="translate(-148.327 -202.488)" fill="#ffece4" fill-rule="evenodd"/>
          </g>
          <g id="Group_2411" data-name="Group 2411" transform="translate(59.4 53.748)">
            <path id="Path_2984" data-name="Path 2984" d="M202.451,170.9l-3.242-2.788c-8.12-7-18.383,4.81-7.529,11.858l9.134,5.929,4.6,2.985h14.551v-9.961l-9.041-.736Z" transform="translate(-186.981 -165.974)" fill="#2e7184" fill-rule="evenodd"/>
          </g>
          <g id="Group_2412" data-name="Group 2412" transform="translate(92.383 71.746)">
            <path id="Path_2985" data-name="Path 2985" d="M148.319,221.634V216.8h12.79a4.018,4.018,0,0,0,.88-.083c.3,2.4-1.057,4.913-3.874,4.913h-9.8Z" transform="translate(-148.319 -216.721)" fill="#ffddce" fill-rule="evenodd"/>
          </g>
          <g id="Group_2413" data-name="Group 2413" transform="translate(59.399 54.945)">
            <path id="Path_2986" data-name="Path 2986" d="M191.681,182.148c-6.566-4.27-5.406-10.272-1.668-12.8-.3,2.591.932,5.566,4.661,7.981l7.115,4.612,2.009,1.317,4.6,2.975h11.568v4.83H205.414l-4.6-2.985Z" transform="translate(-186.981 -169.347)" fill="#045c76" fill-rule="evenodd"/>
          </g>
          <g id="Group_2414" data-name="Group 2414" transform="translate(101.414 64.853)">
            <path id="Path_2987" data-name="Path 2987" d="M131.194,199.857l7.8-2.571c2.61,2.8,3.874,8.25,2.2,11.806h-9.228c2.817,0,4.174-2.508,3.874-4.913A4.86,4.86,0,0,0,131.194,199.857Z" transform="translate(-131.194 -197.286)" fill="#feb40b" fill-rule="evenodd"/>
          </g>
        </g>
      </g>
    </g>
    <g id="Group_2241" data-name="Group 2241" transform="translate(-3.976 49.011)">
      <g id="Group_2169" data-name="Group 2169" transform="translate(115.267 178)">
        <rect id="Rectangle_1906" data-name="Rectangle 1906" width="4.504" height="7.507" transform="translate(18.768 7.507)" fill="#edb264"/>
        <rect id="Rectangle_1905" data-name="Rectangle 1905" width="3.003" height="13.512" transform="translate(7.508 1.501)"/>
        <rect id="Rectangle_1907" data-name="Rectangle 1907" width="3.003" height="13.512" transform="translate(31.53 1.501)"/>
        <path id="Path_2796" data-name="Path 2796" d="M217.642,471.365H194.081L192.8,474c-.208.428.588.827,1.65.827h22.821c1.062,0,1.859-.4,1.65-.827Z" transform="translate(-184.998 -382.658)"/>
        <path id="Path_2790" data-name="Path 2790" d="M180.377,73.143h-21.02a9.008,9.008,0,0,0-9.008,9.008V139.2a9.008,9.008,0,0,0,9.008,9.008h21.02a9.008,9.008,0,0,0,9.008-9.008V82.151A9.008,9.008,0,0,0,180.377,73.143Z" transform="translate(-148.848 -59.63)" fill="#065b76"/>
        <path id="Path_2791" data-name="Path 2791" d="M163.862,139.2V82.151a9.008,9.008,0,0,1,9.008-9.008H159.357a9.008,9.008,0,0,0-9.008,9.008V139.2a9.008,9.008,0,0,0,9.008,9.008H172.87A9.008,9.008,0,0,1,163.862,139.2Z" transform="translate(-148.848 -59.63)" fill="#055067"/>
        <path id="Path_2793" data-name="Path 2793" d="M159.357,82.151V139.2a9.008,9.008,0,0,1-9.008,9.008h13.513a9.008,9.008,0,0,0,9.008-9.008V82.151a9.008,9.008,0,0,0-9.008-9.008H150.349A9.008,9.008,0,0,1,159.357,82.151Z" transform="translate(-132.332 -59.63)" fill="#055067"/>
        <path id="Path_2789" data-name="Path 2789" d="M198.132,3H168.1a1.5,1.5,0,1,1,0-3h30.028a1.5,1.5,0,1,1,0,3Z" transform="translate(-162.099 0)"/>
        <path id="Path_2792" data-name="Path 2792" d="M236.563,35.511h-7.507a1.5,1.5,0,0,1,0-3h7.507a1.5,1.5,0,1,1,0,3Z" transform="translate(-211.79 -26.502)"/>
        <path id="Path_2795" data-name="Path 2795" d="M182.76,271.193H143.723a1.5,1.5,0,0,1-1.5-1.5h0a1.5,1.5,0,0,1,1.5-1.5H182.76a1.5,1.5,0,0,1,1.5,1.5h0A1.5,1.5,0,0,1,182.76,271.193Z" transform="translate(-142.222 -196.475)" fill="#0ea5d5"/>
      </g>
    </g>
  </g>
</svg>
