<svg xmlns="http://www.w3.org/2000/svg" width="71" height="71" viewBox="0 0 71 71">
  <g id="Group_2636" data-name="Group 2636" transform="translate(-145 -41)">
    <circle id="Ellipse_120" data-name="Ellipse 120" cx="35.5" cy="35.5" r="35.5" transform="translate(145 41)" fill="#ffe0c7"/>
    <g id="user_1_" data-name="user (1)" transform="translate(154 50)">
      <path id="Path_2884" data-name="Path 2884" d="M18.613,41.552l-7.907,4.313a7.106,7.106,0,0,0-1.269.9,26.483,26.483,0,0,0,34.027.088,7.015,7.015,0,0,0-1.394-.934L33.6,41.689A3.229,3.229,0,0,1,31.818,38.8V35.479a12.788,12.788,0,0,0,.8-1.03,19.483,19.483,0,0,0,2.632-5.3,2.659,2.659,0,0,0,1.886-2.53V23.069a2.647,2.647,0,0,0-.886-1.965V15.978S37.3,8,26.5,8s-9.75,7.977-9.75,7.977V21.1a2.644,2.644,0,0,0-.886,1.965v3.546a2.658,2.658,0,0,0,1.226,2.231A17.6,17.6,0,0,0,20.3,35.479v3.24A3.232,3.232,0,0,1,18.613,41.552Z" fill="#e7eced"/>
      <g id="Group_2238" data-name="Group 2238">
        <path id="Path_2885" data-name="Path 2885" d="M26.953,0A26.483,26.483,0,0,0,9.448,46.76a7.041,7.041,0,0,1,1.257-.894l7.907-4.313A3.23,3.23,0,0,0,20.3,38.718v-3.24a17.58,17.58,0,0,1-3.206-6.633,2.66,2.66,0,0,1-1.226-2.231V23.068a2.647,2.647,0,0,1,.886-1.965V15.977S15.7,8,26.5,8s9.75,7.977,9.75,7.977V21.1a2.644,2.644,0,0,1,.886,1.965v3.546a2.659,2.659,0,0,1-1.886,2.53,19.482,19.482,0,0,1-2.632,5.3,12.788,12.788,0,0,1-.8,1.03V38.8A3.228,3.228,0,0,0,33.6,41.688l8.467,4.233a7.05,7.05,0,0,1,1.39.932A26.494,26.494,0,0,0,26.953,0Z" fill="#556080"/>
      </g>
    </g>
  </g>
</svg>
