<svg xmlns="http://www.w3.org/2000/svg" width="31" height="31.525" viewBox="0 0 31 31.525">
  <g id="Group_2443" data-name="Group 2443" transform="translate(6322 -4322)">
    <g id="Group_2440" data-name="Group 2440" transform="translate(-6302.824 4331.125)">
      <path id="Path_3004" data-name="Path 3004" d="M20.053,19.106a2.053,2.053,0,1,1,2.053-2.053A2.054,2.054,0,0,1,20.053,19.106Z" transform="translate(-15.947 -15)"/>
      <path id="Path_3005" data-name="Path 3005" d="M23.441,24.106H16.77a.77.77,0,0,1-.77-.77v-.513A2.825,2.825,0,0,1,18.823,20h2.566a2.825,2.825,0,0,1,2.823,2.823v.513A.77.77,0,0,1,23.441,24.106Z" transform="translate(-16 -14.868)"/>
    </g>
    <g id="Group_2441" data-name="Group 2441" transform="translate(-6311.529 4332.729)">
      <rect id="Rectangle_1906" data-name="Rectangle 1906" width="0.373" height="0.622" transform="translate(1.554 0.622)" fill="#edb264"/>
      <rect id="Rectangle_1905" data-name="Rectangle 1905" width="0.249" height="1.119" transform="translate(0.622 0.124)" fill="#433838"/>
      <rect id="Rectangle_1907" data-name="Rectangle 1907" width="0.249" height="1.119" transform="translate(2.611 0.124)" fill="#433838"/>
      <path id="Path_2796" data-name="Path 2796" d="M194.828,471.365h-1.951l-.106.218c-.017.035.049.069.137.069h1.89c.088,0,.154-.033.137-.069Z" transform="translate(-192.124 -464.018)"/>
      <path id="Path_2790" data-name="Path 2790" d="M152.836,73.143H151.1a.746.746,0,0,0-.746.746v4.725a.746.746,0,0,0,.746.746h1.741a.746.746,0,0,0,.746-.746V73.889A.746.746,0,0,0,152.836,73.143Z" transform="translate(-150.225 -72.024)" fill="#f47d1e"/>
      <path id="Path_2791" data-name="Path 2791" d="M151.468,78.614V73.889a.746.746,0,0,1,.746-.746H151.1a.746.746,0,0,0-.746.746v4.725a.746.746,0,0,0,.746.746h1.119A.746.746,0,0,1,151.468,78.614Z" transform="translate(-150.225 -72.024)" fill="#f5730b"/>
      <path id="Path_2793" data-name="Path 2793" d="M151.1,73.889v4.725a.746.746,0,0,1-.746.746h1.119a.746.746,0,0,0,.746-.746V73.889a.746.746,0,0,0-.746-.746h-1.119A.746.746,0,0,1,151.1,73.889Z" transform="translate(-148.857 -72.024)" fill="#f5730b"/>
      <path id="Path_2789" data-name="Path 2789" d="M169.214.249h-2.487a.124.124,0,0,1,0-.249h2.487a.124.124,0,0,1,0,.249Z" transform="translate(-166.23 0)" fill="#433838"/>
      <path id="Path_2792" data-name="Path 2792" d="M228.3,32.757h-.622a.124.124,0,0,1,0-.249h.622a.124.124,0,0,1,0,.249Z" transform="translate(-226.249 -32.011)" fill="#433838"/>
      <path id="Path_2795" data-name="Path 2795" d="M145.579,268.439h-3.233a.124.124,0,0,1-.124-.124h0a.124.124,0,0,1,.124-.124h3.233a.124.124,0,0,1,.124.124h0A.124.124,0,0,1,145.579,268.439Z" transform="translate(-142.222 -262.25)" fill="#ffbb84"/>
    </g>
    <g id="Group_2442" data-name="Group 2442" transform="translate(-6307.326 4332.729)">
      <rect id="Rectangle_1906-2" data-name="Rectangle 1906" width="0.373" height="0.622" transform="translate(1.554 0.622)" fill="#edb264"/>
      <rect id="Rectangle_1905-2" data-name="Rectangle 1905" width="0.249" height="1.119" transform="translate(0.622 0.124)" fill="#433838"/>
      <rect id="Rectangle_1907-2" data-name="Rectangle 1907" width="0.249" height="1.119" transform="translate(2.611 0.124)" fill="#433838"/>
      <path id="Path_2796-2" data-name="Path 2796" d="M194.828,471.365h-1.951l-.106.218c-.017.035.049.069.137.069h1.89c.088,0,.154-.033.137-.069Z" transform="translate(-192.124 -464.018)"/>
      <path id="Path_2790-2" data-name="Path 2790" d="M152.836,73.143H151.1a.746.746,0,0,0-.746.746v4.725a.746.746,0,0,0,.746.746h1.741a.746.746,0,0,0,.746-.746V73.889A.746.746,0,0,0,152.836,73.143Z" transform="translate(-150.225 -72.024)" fill="#f47d1e"/>
      <path id="Path_2791-2" data-name="Path 2791" d="M151.468,78.614V73.889a.746.746,0,0,1,.746-.746H151.1a.746.746,0,0,0-.746.746v4.725a.746.746,0,0,0,.746.746h1.119A.746.746,0,0,1,151.468,78.614Z" transform="translate(-150.225 -72.024)" fill="#f5730b"/>
      <path id="Path_2793-2" data-name="Path 2793" d="M151.1,73.889v4.725a.746.746,0,0,1-.746.746h1.119a.746.746,0,0,0,.746-.746V73.889a.746.746,0,0,0-.746-.746h-1.119A.746.746,0,0,1,151.1,73.889Z" transform="translate(-148.857 -72.024)" fill="#f5730b"/>
      <path id="Path_2789-2" data-name="Path 2789" d="M169.214.249h-2.487a.124.124,0,0,1,0-.249h2.487a.124.124,0,0,1,0,.249Z" transform="translate(-166.23 0)" fill="#433838"/>
      <path id="Path_2792-2" data-name="Path 2792" d="M228.3,32.757h-.622a.124.124,0,0,1,0-.249h.622a.124.124,0,0,1,0,.249Z" transform="translate(-226.249 -32.011)" fill="#433838"/>
      <path id="Path_2795-2" data-name="Path 2795" d="M145.579,268.439h-3.233a.124.124,0,0,1-.124-.124h0a.124.124,0,0,1,.124-.124h3.233a.124.124,0,0,1,.124.124h0A.124.124,0,0,1,145.579,268.439Z" transform="translate(-142.222 -262.25)" fill="#ffbb84"/>
    </g>
    <g id="vendor_1_" data-name="vendor (1)" transform="translate(-6322 4322)">
      <path id="Path_2988" data-name="Path 2988" d="M54,11h2.1v9.983H54Z" transform="translate(-27.203 -6.797)"/>
      <path id="Path_2989" data-name="Path 2989" d="M18,11h2.1v9.983H18Z" transform="translate(-10.119 -6.797)"/>
      <path id="Path_2990" data-name="Path 2990" d="M10.153,45a3.153,3.153,0,1,0,3.153,3.153A3.156,3.156,0,0,0,10.153,45Zm0,4.729a1.576,1.576,0,1,1,1.576-1.576A1.578,1.578,0,0,1,10.153,49.729Z" transform="translate(-4.898 -22.932)"/>
      <circle id="Ellipse_137" data-name="Ellipse 137" cx="1" cy="1" r="1" transform="translate(0 10)"/>
      <circle id="Ellipse_138" data-name="Ellipse 138" cx="0.5" cy="0.5" r="0.5" transform="translate(5 25)"/>
      <path id="Path_2991" data-name="Path 2991" d="M10.948,26.712c.016,0,.031,0,.047,0h1.051a3.681,3.681,0,0,0-3.217-3.646,1.928,1.928,0,0,1-.054,1.16A3.16,3.16,0,0,1,10.948,26.712Z" transform="translate(-5.741 -12.52)"/>
      <path id="Path_2993" data-name="Path 2993" d="M8.254,41a5.254,5.254,0,1,0,5.254,5.254A5.26,5.26,0,0,0,8.254,41Zm0,9.458a4.2,4.2,0,1,1,4.2-4.2A4.208,4.208,0,0,1,8.254,50.458Z" transform="translate(-3 -21.034)"/>
      <path id="Path_2994" data-name="Path 2994" d="M14,37.6a6.309,6.309,0,0,1,5.685,5.227H34.492v2.155a2.627,2.627,0,1,0,1.051,0V42.831h2.1V36H14Z" transform="translate(-8.22 -18.661)"/>
      <path id="Path_2995" data-name="Path 2995" d="M18.2,5.1a2.1,2.1,0,1,0-4.2,0V6.153h4.2Z" transform="translate(-8.22 -3)"/>
      <path id="Path_2996" data-name="Path 2996" d="M28.2,5.1a2.1,2.1,0,1,0-4.2,0V6.153h4.2Z" transform="translate(-12.966 -3)"/>
      <path id="Path_2997" data-name="Path 2997" d="M38.2,5.1a2.1,2.1,0,1,0-4.2,0V6.153h4.2Z" transform="translate(-17.712 -3)"/>
      <path id="Path_2998" data-name="Path 2998" d="M48.2,5.1a2.1,2.1,0,1,0-4.2,0V6.153h4.2Z" transform="translate(-22.458 -3)"/>
      <path id="Path_2999" data-name="Path 2999" d="M56.1,3A2.1,2.1,0,0,0,54,5.1V6.153h4.2V5.1A2.1,2.1,0,0,0,56.1,3Z" transform="translate(-27.203 -3)"/>
    </g>
  </g>
</svg>
