<svg xmlns="http://www.w3.org/2000/svg" width="65.898" height="19.979" viewBox="0 0 65.898 19.979">
  <g id="visa_1_" data-name="visa (1)" transform="translate(0 -175.6)">
    <path id="Path_3114" data-name="Path 3114" d="M184.8,199.228l3.347-18.828h5.23l-3.243,18.828Z" transform="translate(-160.637 -4.172)" fill="#3c58bf"/>
    <path id="Path_3115" data-name="Path 3115" d="M184.8,199.228l4.289-18.828h4.289l-3.243,18.828Z" transform="translate(-160.637 -4.172)" fill="#293688"/>
    <path id="Path_3116" data-name="Path 3116" d="M264,176.437a13.267,13.267,0,0,0-4.812-.837c-5.23,0-9,2.615-9,6.381,0,2.824,2.615,4.289,4.707,5.23s2.72,1.569,2.72,2.406c0,1.255-1.674,1.883-3.138,1.883a11.369,11.369,0,0,1-5.021-1.046l-.732-.314L248,194.428a16.96,16.96,0,0,0,5.962,1.046c5.544,0,9.2-2.615,9.2-6.59,0-2.2-1.36-3.87-4.5-5.23-1.883-.941-3.033-1.464-3.033-2.406,0-.837.941-1.674,3.033-1.674a9.594,9.594,0,0,1,3.975.732l.523.209.837-4.079Z" transform="translate(-215.574)" fill="#3c58bf"/>
    <path id="Path_3117" data-name="Path 3117" d="M264,176.437a13.267,13.267,0,0,0-4.812-.837c-5.23,0-8.054,2.615-8.054,6.381,0,2.824,1.674,4.289,3.766,5.23s2.72,1.569,2.72,2.406c0,1.255-1.674,1.883-3.138,1.883a11.369,11.369,0,0,1-5.021-1.046l-.732-.314L248,194.428a16.96,16.96,0,0,0,5.962,1.046c5.544,0,9.2-2.615,9.2-6.59,0-2.2-1.36-3.87-4.5-5.23-1.883-.941-3.033-1.464-3.033-2.406,0-.837.941-1.674,3.033-1.674a9.594,9.594,0,0,1,3.975.732l.523.209.837-4.079Z" transform="translate(-215.574)" fill="#293688"/>
    <path id="Path_3118" data-name="Path 3118" d="M368.965,180.4c-1.255,0-2.2.1-2.72,1.36L358.4,199.228h5.648l1.046-3.138h6.694l.628,3.138h5.021L373.044,180.4Zm-2.406,12.552c.314-.941,2.092-5.544,2.092-5.544s.418-1.151.732-1.883l.314,1.778s1.046,4.707,1.255,5.753h-4.393Z" transform="translate(-311.539 -4.172)" fill="#3c58bf"/>
    <path id="Path_3119" data-name="Path 3119" d="M370.22,180.4c-1.255,0-2.2.1-2.72,1.36l-9.1,17.468h5.648l1.046-3.138h6.694l.628,3.138h5.021L373.044,180.4Zm-3.661,12.552c.418-1.046,2.092-5.544,2.092-5.544s.418-1.151.732-1.883l.314,1.778s1.046,4.707,1.255,5.753h-4.393Z" transform="translate(-311.539 -4.172)" fill="#293688"/>
    <path id="Path_3120" data-name="Path 3120" d="M59.045,194.275l-.523-2.72a15.163,15.163,0,0,0-7.322-8.263l4.707,16.736h5.648L70.028,181.2H64.38Z" transform="translate(-44.506 -4.868)" fill="#3c58bf"/>
    <path id="Path_3121" data-name="Path 3121" d="M59.045,194.275l-.523-2.72a15.163,15.163,0,0,0-7.322-8.263l4.707,16.736h5.648L70.028,181.2h-4.6Z" transform="translate(-44.506 -4.868)" fill="#293688"/>
    <path id="Path_3122" data-name="Path 3122" d="M0,180.4l.941.209c6.694,1.569,11.3,5.544,13.075,10.251l-1.883-8.891c-.314-1.255-1.255-1.569-2.406-1.569Z" transform="translate(0 -4.172)" fill="#ffbc00"/>
    <path id="Path_3123" data-name="Path 3123" d="M0,180.4H0c6.694,1.569,12.238,5.648,14.016,10.355l-1.778-7.427a2.553,2.553,0,0,0-2.51-1.987Z" transform="translate(0 -4.172)" fill="#f7981d"/>
    <path id="Path_3124" data-name="Path 3124" d="M0,180.4H0c6.694,1.569,12.238,5.648,14.016,10.355l-1.255-4.079c-.314-1.255-.732-2.51-2.2-3.033Z" transform="translate(0 -4.172)" fill="#ed7c00"/>
    <g id="Group_2743" data-name="Group 2743" transform="translate(6.799 178.32)">
      <path id="Path_3125" data-name="Path 3125" d="M64.97,206.86,61.414,203.3l-1.674,3.975-.418-2.615A15.163,15.163,0,0,0,52,196.4l4.707,16.736h5.648Z" transform="translate(-52 -196.4)" fill="#051244"/>
      <path id="Path_3126" data-name="Path 3126" d="M190.135,293.8l-4.5-4.6-.837,4.6Z" transform="translate(-167.436 -277.066)" fill="#051244"/>
      <path id="Path_3127" data-name="Path 3127" d="M257.1,274.8h0c.418.418.628.732.523,1.151,0,1.255-1.674,1.883-3.138,1.883a11.369,11.369,0,0,1-5.021-1.046l-.732-.314L248,280.762a16.96,16.96,0,0,0,5.962,1.046c3.347,0,6.067-.941,7.636-2.615Z" transform="translate(-222.373 -264.549)" fill="#051244"/>
      <path id="Path_3128" data-name="Path 3128" d="M364,233.3h4.916l1.046-3.138h6.694l.628,3.138h5.021l-1.778-7.636-6.276-6.067.314,1.674s1.046,4.707,1.255,5.753h-4.393c.418-1.046,2.092-5.544,2.092-5.544s.418-1.151.732-1.883" transform="translate(-323.206 -216.567)" fill="#051244"/>
    </g>
  </g>
</svg>
