<svg xmlns="http://www.w3.org/2000/svg" width="40.174" height="40.174" viewBox="0 0 40.174 40.174">
  <g id="wallet_3_" data-name="wallet (3)" transform="translate(-0.003 0)">
    <g id="Group_2749" data-name="Group 2749" transform="translate(0.003 0)">
      <g id="Group_2748" data-name="Group 2748">
        <path id="Path_3142" data-name="Path 3142" d="M37.438,32.87H31.046a7.3,7.3,0,0,1,0-14.609h6.391a.913.913,0,0,0,.913-.913V14.609a3.644,3.644,0,0,0-3.361-3.623L29.745,1.828A3.613,3.613,0,0,0,24.788.492L6.812,10.957H3.655A3.656,3.656,0,0,0,0,14.609V36.522a3.656,3.656,0,0,0,3.652,3.652H34.7a3.656,3.656,0,0,0,3.652-3.652V33.783A.913.913,0,0,0,37.438,32.87ZM30.878,7.482l1.989,3.475H24.909ZM10.442,10.957,25.707,2.07a1.766,1.766,0,0,1,1.356-.183,1.79,1.79,0,0,1,1.1.848l0,0L14.046,10.957Z" transform="translate(-0.003 0)" fill="#44d2f7"/>
        <path id="Path_3143" data-name="Path 3143" d="M310.54,234.674h-6.391a5.478,5.478,0,0,0,0,10.956h6.391a2.742,2.742,0,0,0,2.739-2.739v-5.478A2.742,2.742,0,0,0,310.54,234.674Zm-6.391,7.3a1.826,1.826,0,1,1,1.826-1.826A1.828,1.828,0,0,1,304.148,241.978Z" transform="translate(-273.105 -214.587)" fill="#44d2f7"/>
      </g>
    </g>
  </g>
</svg>
